<svg version="1.1" xmlns="http://www.w3.org/2000/svg" xmlns:xlink="http://www.w3.org/1999/xlink" width="337" height="183.92952" viewBox="0,0,337,183.92952"><g transform="translate(-55,-70.97673)"><g data-paper-data="{&quot;isPaintingLayer&quot;:true}" fill-rule="nonzero" stroke-linejoin="miter" stroke-miterlimit="10" stroke-dasharray="" stroke-dashoffset="0" style="mix-blend-mode: normal"><path d="M220.26595,121.93696c0,0 12.0221,-50.95382 54.73803,-45.56039c27.7276,3.75348 12.78313,45.5604 12.78313,45.5604" fill="none" stroke="#505050" stroke-width="10" stroke-linecap="round"/><path d="M180.58478,230.13191c0,0 -0.59807,-0.6515 0.21273,-3.62866c2.67412,-9.81903 17.46215,-64.11881 22.29188,-81.85299c0.95981,-3.52432 2.83742,-4.94898 2.83742,-4.94898c0,0 0.2631,-0.65555 3.00795,-0.65555c17.15543,0 80.04043,0 90.13748,0c2.67633,0 3.29294,1.31109 3.29294,1.31109c0,0 1.07299,0.76674 0.11489,4.28473c-4.7602,17.47886 -19.20232,70.50853 -22.02736,80.88173c-0.93577,3.43605 -2.11849,5.26417 -2.11849,5.26417c0,0 -1.82523,1.31109 -5.48379,1.31109c-18.81919,0 -77.47441,0 -87.84306,0c-3.06427,0 -4.4226,-1.96664 -4.4226,-1.96664z" fill="#232323" stroke="#232323" stroke-width="6" stroke-linecap="butt"/><path d="M180.34041,207.59901c0,0 -0.59807,-0.6515 0.21274,-3.62867c2.67412,-9.81903 17.46214,-64.11881 22.29188,-81.85298c0.95981,-3.52432 2.83742,-4.94898 2.83742,-4.94898c0,0 0.2631,-0.65555 3.00796,-0.65555c17.15543,0 80.04042,0 90.13748,0c2.67633,0 3.29294,1.31109 3.29294,1.31109c0,0 1.07299,0.76673 0.1149,4.28472c-4.7602,17.47887 -19.20233,70.50853 -22.02737,80.88173c-0.93577,3.43605 -2.11849,5.26417 -2.11849,5.26417c0,0 -1.82523,1.31109 -5.48379,1.31109c-18.81919,0 -77.47442,0 -87.84307,0c-3.06427,0 -4.42259,-1.96663 -4.42259,-1.96663z" fill="#505050" stroke="#505050" stroke-width="6" stroke-linecap="butt"/><path d="M180.09078,206.58443v9.83318" fill="none" stroke="#505050" stroke-width="6" stroke-linecap="round"/><path d="M276.45593,216.74538h-95.70961" fill="none" stroke="#505050" stroke-width="6" stroke-linecap="round"/><path d="M276.53934,206.0123v9.83318" fill="none" stroke="#505050" stroke-width="6" stroke-linecap="round"/><path d="M302.65284,118.92256l-0.13605,8.83549" fill="none" stroke="#505050" stroke-width="6" stroke-linecap="round"/><path d="M302.34997,128.24677l-25.23849,88.17084" fill="none" stroke="#505050" stroke-width="6" stroke-linecap="round"/><path d="M180.09078,216.41761v-7.211h95.38184v7.211z" fill="#505050" stroke="none" stroke-width="0" stroke-linecap="butt"/><path d="M223.46627,184.65861l12.75194,-33.11478l9.49763,2.54685l-4.17052,30.89122z" fill="#232323" stroke="none" stroke-width="0" stroke-linecap="butt"/><path d="M231.48813,147.97134c0.95347,-6.67024 8.02572,-10.13594 13.44596,-8.68247c5.42024,1.45347 8.63594,7.02572 7.18247,12.44597c-1.45347,5.42024 -7.02572,8.63594 -12.44596,7.18247c-5.42024,-1.45347 -8.97657,-5.3907 -8.18247,-10.94596z" fill="#232323" stroke="#000000" stroke-width="3" stroke-linecap="butt"/><text transform="translate(57.375,105.3875) scale(0.5,0.5)" font-size="40" xml:space="preserve" fill="#232323" fill-rule="nonzero" stroke="none" stroke-width="1" stroke-linecap="butt" stroke-linejoin="miter" stroke-miterlimit="10" stroke-dasharray="" stroke-dashoffset="0" font-family="Sans Serif" font-weight="normal" text-anchor="start" style="mix-blend-mode: normal"><tspan x="0" dy="0">Please log in</tspan></text><text transform="translate(309.625,241.6375) scale(0.5,0.5)" font-size="40" xml:space="preserve" fill="#232323" fill-rule="nonzero" stroke="none" stroke-width="1" stroke-linecap="butt" stroke-linejoin="miter" stroke-miterlimit="10" stroke-dasharray="" stroke-dashoffset="0" font-family="Sans Serif" font-weight="normal" text-anchor="start" style="mix-blend-mode: normal"><tspan x="0" dy="0">Register</tspan></text><text transform="translate(255.5,156.40625) scale(0.5,0.5)" font-size="40" xml:space="preserve" fill="#000000" fill-rule="nonzero" stroke="none" stroke-width="1" stroke-linecap="butt" stroke-linejoin="miter" stroke-miterlimit="10" stroke-dasharray="" stroke-dashoffset="0" font-family="Sans Serif" font-weight="normal" text-anchor="start" style="mix-blend-mode: normal"><tspan x="0" dy="0">R</tspan></text><path d="M58.5,117.40625h120" fill="none" stroke="#2c2c2c" stroke-width="7" stroke-linecap="round"/><path d="M309.5,251.40625h79" fill="none" stroke="#2c2c2c" stroke-width="7" stroke-linecap="round"/></g></g></svg>