<svg version="1.1" xmlns="http://www.w3.org/2000/svg" xmlns:xlink="http://www.w3.org/1999/xlink" width="244.91765" height="283.03262" viewBox="0,0,244.91765,283.03262"><g transform="translate(-118.94256,-39.91449)"><g data-paper-data="{&quot;isPaintingLayer&quot;:true}" fill-rule="nonzero" stroke-linejoin="miter" stroke-miterlimit="10" stroke-dasharray="" stroke-dashoffset="0" style="mix-blend-mode: normal"><path d="M240.5,179.51667l-117.33333,-68.66667l118,-68.66667l117.66667,69.66667z" fill="#bababa" stroke="none" stroke-width="0" stroke-linecap="butt"/><path d="M240.5,321.18334l1.33333,-108l120,-72.33334l-0.33333,108.66667z" data-paper-data="{&quot;index&quot;:null}" fill="#000000" stroke="none" stroke-width="0" stroke-linecap="butt"/><path d="M121.16667,248.51667l-0.33333,-108.66667l120,72.33334l1.33333,108z" fill="#000000" stroke="none" stroke-width="0" stroke-linecap="butt"/><path d="M347.00458,150.65559l-0.45476,29.10639l-12.88506,7.52508l-0.18799,-11.52589l-12.78438,4.91681l-1.18303,15.38644l-12.00761,6.79488l1.01427,-27.89207l-25.89325,14.43632l-0.83519,12.89348l-28.74497,16.39321l-0.10056,-13.52265l-11.77538,7.34909l0.66667,-30.33333l119,-69l0.66667,29.33333z" data-paper-data="{&quot;index&quot;:null}" fill="#bababa" stroke="none" stroke-width="0" stroke-linecap="butt"/><path d="M121.5,142.85l0.66666,-29.33333l119,69l0.66667,30.33333l-14.44205,-7.34909l-0.10056,12.52265l-26.07831,-15.3932l-0.83519,-12.89348l-25.89325,-14.43632l-3.31906,27.89207l-11.67428,-5.79489l0.48364,-16.38643l-11.78438,-4.58348l-2.85466,11.19257l-12.88505,-7.52508l-0.45477,-30.43973z" fill="#bababa" stroke="none" stroke-width="0" stroke-linecap="butt"/><path d="M121.44257,111.36002v137.89658" fill="none" stroke="#333333" stroke-width="5" stroke-linecap="round"/><path d="M240.84084,320.44712l-119.31382,-70.58774" fill="none" stroke="#333333" stroke-width="5" stroke-linecap="round"/><path d="M360.79966,252.05938l-119.71382,68.34552" fill="none" stroke="#333333" stroke-width="5" stroke-linecap="round"/><path d="M361.36021,112.56279v139.16993" fill="none" stroke="#333333" stroke-width="5" stroke-linecap="round"/><path d="M361.15744,112.39946l-119.47161,-69.98496" fill="none" stroke="#333333" stroke-width="5" stroke-linecap="round"/><path d="M241.39861,42.49339l-119.8716,68.38218" fill="none" stroke="#333333" stroke-width="5" stroke-linecap="round"/><path d="M122.28757,111.96279l118.47938,68.26385" fill="none" stroke="#333333" stroke-width="5" stroke-linecap="round"/><path d="M241.14361,180.1872l120.00827,-67.46108" fill="none" stroke="#333333" stroke-width="5" stroke-linecap="round"/><path d="M240.84084,181.31386v138.12215" fill="none" stroke="#333333" stroke-width="5" stroke-linecap="round"/><path d="M122.08334,143.425l10,6v30.33333l14,8.66667l0.16666,-14.66667l13.5,7.33333l-0.16666,15.5l13.33333,7.5l0.33334,-29.5l26.83334,15.33334v12.83333l26.5,16v-13.33333l12.16666,7.33333" fill="none" stroke="#333333" stroke-width="5" stroke-linecap="round"/><path d="M242.75,210.25834l10.33334,-6v14.5l27.66666,-15.33333v-14l25.66667,-14.5l0.33333,28.5l13,-7l0.16667,-14.66667l13.16667,-7.5l0.16667,13.16667l13,-7.66667l-0.16667,-28.33333l13.5,-7.33334" fill="none" stroke="#333333" stroke-width="5" stroke-linecap="round"/><path d="M203.58334,157.18334l9,-6l-24.33334,-16l12.33334,-8l39.66666,24.66666l-11,6.33334l12,7.66666l26,-14.66666l11.33333,5.66666" fill="none" stroke="#333333" stroke-width="5" stroke-linecap="round"/><path d="M134.91667,103.85l25.66667,16l-12,6.66667" fill="none" stroke="#333333" stroke-width="5" stroke-linecap="round"/><path d="M200.58334,96.85l54,-30l12,6l-24.33333,15l10.66666,7.33334l-11.66666,7.33334l-11,-6.66667l-17.33334,9z" fill="none" stroke="#333333" stroke-width="5" stroke-linecap="round"/><path d="M281.91667,80.51667l-12.33333,7l24,14.66666l12.66667,-5.66666z" fill="none" stroke="#333333" stroke-width="5" stroke-linecap="round"/><path d="M267.25,104.85l-37.66666,22l13.33333,6.66667l37,-22z" fill="none" stroke="#333333" stroke-width="5" stroke-linecap="round"/><path d="M331.25,97.51667l-49.33333,29l24,15.33333" fill="none" stroke="#333333" stroke-width="5" stroke-linecap="round"/><path d="M203.58334,66.18334l10.66666,7l38,-22.33333" fill="none" stroke="#333333" stroke-width="5" stroke-linecap="round"/></g></g></svg>