<svg version="1.1" xmlns="http://www.w3.org/2000/svg" xmlns:xlink="http://www.w3.org/1999/xlink" width="114.32539" height="102.07362" viewBox="0,0,114.32539,102.07362"><g transform="translate(-183.09382,-129.7077)"><g data-paper-data="{&quot;isPaintingLayer&quot;:true}" fill="none" fill-rule="nonzero" stroke="#232323" stroke-width="5" stroke-linecap="butt" stroke-linejoin="miter" stroke-miterlimit="10" stroke-dasharray="" stroke-dashoffset="0" style="mix-blend-mode: normal"><path d="M250.51431,207.7293l0,9.86731c0,0 0.29501,11.86771 -9.86036,11.68256c-11.07857,-0.20197 -9.68138,-11.68256 -9.68138,-11.68256c0,0 0,-28.45018 0,-28.45018l-33.20625,-0.27865c0,0 -11.77188,1.13484 -12.1725,-7.78877c-0.40133,-8.93946 12.03034,-8.28816 12.03034,-8.28816l33.34841,-0.21241l0,-30.17504c0,0 -0.38327,-10.12687 10.1062,-10.19569c10.54341,-0.06917 9.43554,10.19569 9.43554,10.19569l0,29.75022l32.28636,0.21241c0,0 11.97591,-1.30977 12.11855,8.07209c0.13545,8.9082 -12.0926,8.49864 -12.0926,8.49864l-3.61665,0.02347"/></g></g></svg>